<svg width="18" height="18" viewBox="0 0 18 18" fill="none" xmlns="http://www.w3.org/2000/svg">
<g id="vuesax/bold/whatsapp">
<g id="whatsapp">
<path id="Vector" d="M16.4852 8.55759C16.2302 4.20759 12.2777 0.855093 7.72521 1.60509C4.59021 2.12259 2.07772 4.66508 1.59022 7.80008C1.30522 9.61508 1.68024 11.3326 2.49774 12.7501L1.83023 15.2326C1.68023 15.7951 2.19771 16.3051 2.75271 16.1476L5.19772 15.4726C6.30772 16.1251 7.60522 16.5001 8.99272 16.5001C13.2227 16.5001 16.7327 12.7726 16.4852 8.55759ZM12.6602 11.7901C12.5927 11.9251 12.5102 12.0526 12.4052 12.1726C12.2177 12.3751 12.0152 12.5251 11.7902 12.6151C11.5652 12.7126 11.3177 12.7576 11.0552 12.7576C10.6727 12.7576 10.2602 12.6676 9.83271 12.4801C9.39771 12.2926 8.97023 12.0451 8.54273 11.7376C8.10773 11.4226 7.70272 11.0701 7.31272 10.6876C6.92272 10.2976 6.5777 9.88507 6.2627 9.45757C5.9552 9.03007 5.70772 8.60258 5.52772 8.17508C5.34772 7.74758 5.25773 7.33509 5.25773 6.94509C5.25773 6.69009 5.30273 6.44259 5.39272 6.21759C5.48272 5.98509 5.62524 5.77509 5.82774 5.58759C6.06774 5.34759 6.33022 5.23509 6.60772 5.23509C6.71272 5.23509 6.8177 5.25759 6.9152 5.30259C7.0127 5.34759 7.10272 5.41509 7.17022 5.51259L8.0402 6.74258C8.1077 6.84008 8.16021 6.92258 8.19021 7.00508C8.22771 7.08758 8.24272 7.16258 8.24272 7.23758C8.24272 7.32758 8.21273 7.41759 8.16023 7.50759C8.10773 7.59759 8.04021 7.68758 7.9502 7.77758L7.6652 8.07758C7.6202 8.12258 7.60523 8.16758 7.60523 8.22758C7.60523 8.25758 7.6127 8.28758 7.6202 8.31758C7.6352 8.34758 7.64273 8.37009 7.65023 8.39259C7.71773 8.52009 7.83771 8.67757 8.00271 8.87257C8.17521 9.06757 8.35524 9.27008 8.55024 9.46508C8.75274 9.66758 8.94773 9.84757 9.15023 10.0201C9.34523 10.1851 9.51021 10.2976 9.6377 10.3651C9.6602 10.3726 9.68272 10.3876 9.70522 10.3951C9.73522 10.4101 9.76523 10.4101 9.80273 10.4101C9.87023 10.4101 9.91525 10.3876 9.96025 10.3426L10.2452 10.0576C10.3427 9.96009 10.4327 9.89259 10.5152 9.84759C10.6052 9.79509 10.6877 9.76508 10.7852 9.76508C10.8602 9.76508 10.9352 9.78008 11.0177 9.81758C11.1002 9.85508 11.1902 9.90009 11.2802 9.96759L12.5252 10.8526C12.6227 10.9201 12.6902 11.0026 12.7352 11.0926C12.7727 11.1901 12.7952 11.2801 12.7952 11.3851C12.7502 11.5126 12.7202 11.6551 12.6602 11.7901Z" fill="#7BE879"/>
</g>
</g>
</svg>
